<?xml version="1.0" encoding="UTF-8"?>
<svg id="Layer_1" xmlns="http://www.w3.org/2000/svg" version="1.1" viewBox="0 0 87 70">
  <!-- Generator: Adobe Illustrator 30.0.0, SVG Export Plug-In . SVG Version: 2.1.1 Build 123)  -->
  <defs>
    <style>
      .st0 {
        fill: #007aff;
        fill-opacity: .9;
      }
    </style>
  </defs>
  <path class="st0" d="M68.5,65c10.4,0,18.7-7.8,18.7-17.4s-4.3-13.5-10.8-16.4c0-15.3-11.1-26.3-25.1-26.3s-15.8,4.8-20,10.7c-8.5-2.2-17.6,4.1-17.9,13.7C5.5,30.8.9,37.9.9,46.3s8.9,18.8,20.7,18.8h47,0ZM68.5,58.7H21.5c-8.4,0-14.5-5.9-14.5-12.6s4-12.1,11.3-12.1.7-.2.7-.7c0-10.7,7.5-13.4,14.3-11.3.5.1.7,0,.9-.3,3.2-5.9,8.3-10.6,16.9-10.6s18.7,8.9,19.1,18.7c0,1.6,0,3.6-.2,5.3,0,.5,0,.7.6.8,6.2,1.3,10.2,5.6,10.2,11.7s-5.4,11.1-12.4,11.1c0,0,0,0,.1,0Z"/>
  <path class="st0" d="M29.3,40.3h8.9c1.2,0,1.5-1.2.8-2.1l-4-5.4c-.6-.9-1.8-1-2.6,0l-3.9,5.4c-.7.9-.4,2.1.8,2.1ZM45.1,51.5c3,0,5.9-1.1,7.8-2.6,1.4-1,1.4-2.4.8-3.3-.6-.8-1.8-1.1-3.2-.2-1.5,1.1-3.3,1.8-5.4,1.8-5.1,0-9.2-4.1-9.2-9.2s-.9-2.1-2.1-2.1-2.1,1-2.1,2.1c0,7.4,6,13.4,13.4,13.4h0ZM60.9,35.8h-8.8c-1.2,0-1.5,1.2-.8,2.1l4,5.4c.6.9,1.8,1,2.5,0l3.9-5.4c.7-.9.4-2.1-.8-2.1ZM45.1,24.6c-3,0-5.9,1.1-7.8,2.6-1.4,1-1.4,2.4-.8,3.3.6.8,1.8,1.1,3.2.2,1.5-1.1,3.3-1.8,5.4-1.8,5.1,0,9.2,4.1,9.2,9.2s.9,2.1,2.1,2.1,2.1-1,2.1-2.1c0-7.4-6-13.4-13.4-13.4h0Z"/>
</svg>