<?xml version="1.0" encoding="UTF-8"?>
<svg id="Layer_1" xmlns="http://www.w3.org/2000/svg" version="1.1" viewBox="0 0 100 70">
  <!-- Generator: Adobe Illustrator 30.0.0, SVG Export Plug-In . SVG Version: 2.1.1 Build 123)  -->
  <defs>
    <style>
      .st0 {
        fill: #007aff;
        fill-opacity: .9;
      }
    </style>
  </defs>
  <path class="st0" d="M58.3,70c24.1,0,41.7-14.7,41.7-35S82.3,0,58.3,0,16.5,14.6,16.5,35s2,13,5.4,18.1c1.6,2.4,2.2,4.1,2.2,5.4s-.5,3.2-2.1,4.6c-3.1,2.7-1.4,6.8,2.7,6.8s9.4-1.4,13.1-3.9c6,2.7,13,3.9,20.4,3.9h0ZM58.3,63.5c-6.6,0-12.5-1.3-17.6-3.5-2.5-1.2-4.4-.8-6.8.6-1.2.7-2.4,1.4-3.8,1.9.5-1.2.8-2.4.8-3.9,0-2.7-1-5.7-3.2-9-2.9-4.1-4.4-9-4.4-14.4,0-16.5,14.5-28.4,35.1-28.4s35.2,12.1,35.2,28.4-14.5,28.5-35.2,28.5h0v-.2Z"/>
  <path class="st0" d="M56.5,42.4c2.1,0,3.2-1.3,3.2-2.9v-.2c0-2,1.2-3.1,3.6-4.8,3.4-2.2,6-4.3,6-8.7,0-6.3-5.6-9.5-11.7-9.5s-10.3,2.8-11.5,5.9c-.2.6-.3,1.3-.3,1.9,0,1.9,1.4,2.8,2.8,2.8s2.2-.6,2.9-1.5l.8-.9c1.5-1.9,3.1-2.7,5.1-2.7,3,0,5,1.7,5,4.3s-1.6,3.5-4.5,5.6c-2.4,1.6-4.5,3.6-4.5,7.2v.2c0,2.1,1.2,3.1,3.2,3.1v.2h0ZM56.5,53.2c2.2,0,4.1-1.7,4.1-3.9s-1.9-3.9-4.1-3.9-4.2,1.7-4.2,3.9,2,3.9,4.2,3.9Z"/>
</svg>