<?xml version="1.0" encoding="UTF-8"?>
<svg id="Layer_1" xmlns="http://www.w3.org/2000/svg" version="1.1" viewBox="0 0 100 70">
  <!-- Generator: Adobe Illustrator 30.0.0, SVG Export Plug-In . SVG Version: 2.1.1 Build 123)  -->
  <defs>
    <style>
      .st0 {
        fill: #007aff;
        fill-opacity: .9;
      }
    </style>
  </defs>
  <path class="st0" d="M99.9,55.9c0,8.3-12.4,14.1-30,14.1s-30.1-5.8-30.1-14.1,8.6-12,21.7-13.6v1.1c0,1.7,0,3.2.2,4.7-8.6,1.2-14.5,4.3-14.5,7.9s9.9,8.5,22.7,8.5,22.7-3.8,22.7-8.5-6-6.6-14.6-7.9c0-1.4.2-3,.2-4.6v-1.1c13.1,1.5,21.8,6.7,21.8,13.6h0Z"/>
  <path class="st0" d="M82.3,12.5c0,5.7-3.9,10.6-9.1,12v17.4c0,10.5-1.9,16.2-3.3,16.2s-3.3-5.8-3.3-16.2v-17.4c-5.3-1.5-9.1-6.3-9.1-12S62.9,0,69.9,0s12.4,5.6,12.4,12.5ZM62.1,8.9c0,2.3,2,4.3,4.2,4.3s4.2-2,4.2-4.3-1.9-4.2-4.2-4.2-4.2,1.9-4.2,4.2Z"/>
</svg>