<?xml version="1.0" encoding="UTF-8"?>
<svg id="Layer_1" xmlns="http://www.w3.org/2000/svg" version="1.1" viewBox="0 0 65 70">
  <!-- Generator: Adobe Illustrator 30.0.0, SVG Export Plug-In . SVG Version: 2.1.1 Build 123)  -->
  <defs>
    <style>
      .st0 {
        fill-opacity: .9;
      }

      .st0, .st1 {
        fill: #8a8a8d;
      }

      .st1 {
        fill-opacity: 0;
      }
    </style>
  </defs>
  <rect class="st1" x=".5" y="3" width="64" height="64"/>
  <path class="st0" d="M32.5,67c17.7,0,32-14.3,32-32S50.2,3,32.5,3,.5,17.3.5,35s14.3,32,32,32ZM32.5,60.9c-14.3,0-25.9-11.6-25.9-26s11.6-26,25.9-26,26,11.6,26,26-11.6,26-26,26Z"/>
  <path class="st0" d="M18.4,50.7h28.1c1.3,0,2-1,2-2.2,0-3.4-5.2-12-16.1-12s-16,8.7-16,12,.7,2.2,2,2.2ZM32.4,33.9c4.4,0,8-3.8,8-8.8s-3.6-8.6-8-8.6-8,3.9-8,8.6,3.6,8.7,8,8.8Z"/>
</svg>