<?xml version="1.0" encoding="UTF-8"?>
<svg id="Layer_1" xmlns="http://www.w3.org/2000/svg" version="1.1" viewBox="0 0 65 70">
  <!-- Generator: Adobe Illustrator 30.0.0, SVG Export Plug-In . SVG Version: 2.1.1 Build 123)  -->
  <defs>
    <style>
      .st0 {
        fill-opacity: .9;
      }

      .st0, .st1 {
        fill: #8a8a8d;
      }

      .st1 {
        fill-opacity: 0;
      }
    </style>
  </defs>
  <rect class="st1" x=".5" y="11.8" width="64" height="46.3"/>
  <path class="st0" d="M4.8,31.6c.5.6,1.4.6,1.9,0,6.8-7.2,15.7-11,25.7-11s19,3.8,25.8,11c.5.5,1.3.5,1.9,0l3.9-3.9c.5-.5.5-1.2,0-1.7-6.5-8-18.7-14-31.7-14S7.3,17.9.8,25.9c-.4.5-.4,1.1.1,1.7l3.9,4Z"/>
  <path class="st0" d="M16.3,43.1c.6.6,1.4.5,2-.1,3.2-3.7,8.6-6.3,14.2-6.3,5.6,0,11,2.8,14.3,6.4.5.6,1.3.6,1.9,0l4.4-4.3c.5-.5.5-1.1.1-1.7-4.2-5.1-12-9.1-20.7-9.1s-16.5,3.9-20.7,9.1c-.4.5-.4,1.1.1,1.7l4.4,4.4Z"/>
  <path class="st0" d="M32.5,58.2c.7,0,1.2-.3,2.3-1.4l6.8-6.5c.4-.4.5-1.1.1-1.6-1.9-2.4-5.3-4.5-9.3-4.5s-7.5,2.2-9.4,4.7c-.3.4-.1,1,.3,1.4l6.7,6.5c1.1,1.1,1.7,1.4,2.3,1.4Z"/>
</svg>