<?xml version="1.0" encoding="UTF-8"?>
<svg id="Layer_1" xmlns="http://www.w3.org/2000/svg" version="1.1" viewBox="0 0 65 70">
  <!-- Generator: Adobe Illustrator 30.0.0, SVG Export Plug-In . SVG Version: 2.1.1 Build 123)  -->
  <defs>
    <style>
      .st0 {
        fill-opacity: .9;
      }

      .st0, .st1 {
        fill: #8a8a8d;
      }

      .st1 {
        fill-opacity: 0;
      }
    </style>
  </defs>
  <rect class="st1" y="8.5" width="65" height="53"/>
  <path class="st0" d="M9.2,61.1h47.6c5.1,0,8.2-3,8.2-9.1v-29.1c0-6.1-3.1-9.1-9.2-9.1h-27.2c-1.8,0-2.9-.5-4.3-1.6l-1.8-1.5c-1.9-1.6-3.4-2.1-6.2-2.1h-8.1C3,8.5,0,11.5,0,17.5v34.4c0,6.1,3.1,9.1,9.2,9.1ZM9.3,55.8c-2.6,0-4.1-1.4-4.1-4.1V17.8c0-2.7,1.5-4.1,4.1-4.1h5.6c1.8,0,2.9.5,4.3,1.6l1.8,1.5c1.8,1.5,3.4,2.1,6.2,2.1h28.5c2.6,0,4.1,1.4,4.1,4.2v28.6c0,2.7-1.5,4.1-4.1,4.1H9.3ZM9.1,27.4h46.8v-2.1c0-1.7-.8-2.5-2.5-2.5H11.6c-1.7,0-2.5.8-2.5,2.5v2.1Z"/>
</svg>