<?xml version="1.0" encoding="UTF-8"?>
<svg id="Layer_1" xmlns="http://www.w3.org/2000/svg" version="1.1" viewBox="0 0 65 70">
  <!-- Generator: Adobe Illustrator 30.0.0, SVG Export Plug-In . SVG Version: 2.1.1 Build 123)  -->
  <defs>
    <style>
      .st0 {
        fill: #8a8a8d;
        fill-opacity: .9;
      }
    </style>
  </defs>
  <path class="st0" d="M13.7,56.3h34.6c9.1,0,16.1-6.8,16.1-15.7s-7.1-15.6-17-15.6c-3.6-7-10.2-11.2-17.9-11.2s-19.3,8-20.3,18.7C3.9,34,.4,38.6.4,44.2s4.8,12.1,13.3,12.1ZM13.6,51.4c-5.2,0-8.3-2.7-8.3-7s2.3-6.2,6.4-7.3c1.6-.4,2.2-1.2,2.4-2.9.7-8.9,7.2-15.5,15.4-15.5s10.9,3.4,13.9,9.5c.7,1.4,1.5,1.9,3.3,1.9,8.4,0,12.8,4.9,12.8,10.7s-4.7,10.7-10.8,10.7H13.6Z"/>
</svg>