<?xml version="1.0" encoding="UTF-8"?>
<svg id="Layer_1" xmlns="http://www.w3.org/2000/svg" version="1.1" viewBox="0 0 100 70">
  <!-- Generator: Adobe Illustrator 30.0.0, SVG Export Plug-In . SVG Version: 2.1.1 Build 123)  -->
  <defs>
    <style>
      .st0 {
        fill: #231f20;
        fill-opacity: .9;
      }
    </style>
  </defs>
  <path class="st0" d="M77.8,13.4c3.7,0,6.7-3,6.7-6.7s-3-6.7-6.7-6.7-6.7,3-6.7,6.7,3,6.7,6.7,6.7ZM63.3,37.4h4.6c2.5,0,4.4-1.9,4.4-4.4v-16.8c0-2.4-2-4.4-4.4-4.4h-3.1c-3.7,0-5.9,2.1-5.9,5.9v15.2c0,2.6,1.8,4.4,4.4,4.4h0ZM61.6,68.8l8.4-10c1.1-1.3,1.4-1.8,2.1-3.3l5.4-11.5c1.9-4.1,2.2-6.2,2.5-10.3l.3-4.9,4.8,4.5c1.1,1,2,1.4,3.9,1.4h7.6c2,0,3.2-1.1,3.2-2.9s-1.3-2.9-3.2-2.9h-8.1l-9.4-10.2c-1.4-1.6-3.3-2.4-5.5-2.4s-3.6.6-5.2,1.7l-1.3,18.5c-.2,2.9.2,4.6,1.7,6.7l-2.8,11-9,10.3c-3.2,3.8,2,7.3,4.6,4.3ZM90.2,64.9l-6.2-12.5c-.5-1-1.2-2.2-1.8-3l-2.3-3.2-3.2,6.8c.7.9,1,1.3,1.3,2l6.4,12.9c2,4.1,8.1,1.5,5.9-2.9h-.1ZM96.6,19.4c-1,0-1.7.8-1.7,1.7v4.7h1.8c.4,0,1,0,1.7.2v-4.9c0-1-.8-1.7-1.7-1.7h-.1ZM96.6,69.9c1,0,1.8-.8,1.8-1.8v-30.6c-.6,0-1.2.2-1.7.2h-1.8v30.5c0,1,.7,1.8,1.7,1.8h0Z"/>
</svg>