<?xml version="1.0" encoding="UTF-8"?>
<svg id="Layer_1" xmlns="http://www.w3.org/2000/svg" version="1.1" viewBox="0 0 76 70">
  <!-- Generator: Adobe Illustrator 30.0.0, SVG Export Plug-In . SVG Version: 2.1.1 Build 123)  -->
  <defs>
    <style>
      .st0 {
        fill-opacity: .9;
      }
    </style>
  </defs>
  <path class="st0" d="M37.5,65.2c20.8,0,36-12.7,36-30.2S58.2,4.8,37.5,4.8,1.5,17.4,1.5,35s1.7,11.2,4.7,15.6c1.4,2.1,1.9,3.5,1.9,4.7s-.4,2.8-1.8,4c-2.7,2.3-1.2,5.9,2.3,5.9s8.1-1.2,11.3-3.4c5.2,2.3,11.2,3.4,17.6,3.4ZM37.5,59.6c-5.7,0-10.8-1.1-15.2-3-2.2-1-3.8-.7-5.9.5-1,.6-2.1,1.2-3.3,1.6.4-1,.7-2.1.7-3.4,0-2.3-.9-4.9-2.8-7.8-2.5-3.5-3.8-7.8-3.8-12.4,0-14.2,12.5-24.5,30.3-24.5s30.4,10.4,30.4,24.5-12.5,24.6-30.4,24.6Z"/>
  <path class="st0" d="M36.8,41.4c1.8,0,2.8-1.1,2.8-2.5v-.2c0-1.7,1-2.7,3.1-4.1,2.9-1.9,5.2-3.7,5.2-7.5,0-5.4-4.8-8.2-10.1-8.2s-8.9,2.4-9.9,5.1c-.2.5-.3,1.1-.3,1.6,0,1.6,1.2,2.4,2.4,2.4s1.9-.5,2.5-1.3l.7-.8c1.3-1.6,2.7-2.3,4.4-2.3,2.6,0,4.3,1.5,4.3,3.7s-1.4,3-3.9,4.8c-2.1,1.4-3.9,3.1-3.9,6.2v.2c0,1.8,1,2.7,2.8,2.7ZM36.8,50.7c1.9,0,3.5-1.5,3.5-3.4s-1.6-3.4-3.5-3.4-3.6,1.5-3.6,3.4,1.7,3.4,3.6,3.4Z"/>
</svg>