<?xml version="1.0" encoding="UTF-8"?>
<svg id="Layer_1" xmlns="http://www.w3.org/2000/svg" version="1.1" viewBox="0 0 76 70">
  <!-- Generator: Adobe Illustrator 30.0.0, SVG Export Plug-In . SVG Version: 2.1.1 Build 123)  -->
  <defs>
    <style>
      .st0 {
        fill-opacity: .9;
      }
    </style>
  </defs>
  <path class="st0" d="M59.8,61.1c9,0,16.2-6.8,16.2-15.1s-3.7-11.7-9.4-14.2c0-13.3-9.6-22.8-21.8-22.8s-13.7,4.2-17.4,9.3c-7.4-1.9-15.3,3.6-15.5,11.9-6.8,1.2-10.8,7.3-10.8,14.6s7.7,16.3,18,16.3h40.8ZM59.8,55.6H19c-7.3,0-12.6-5.1-12.6-10.9s3.5-10.5,9.8-10.5.6-.2.6-.6c0-9.3,6.5-11.6,12.4-9.8.4.1.6,0,.8-.3,2.8-5.1,7.2-9.2,14.7-9.2s16.2,7.7,16.6,16.2c0,1.4,0,3.1-.2,4.6,0,.4.1.6.5.7,5.4,1.1,8.9,4.9,8.9,10.2s-4.7,9.6-10.8,9.6Z"/>
  <path class="st0" d="M23.8,40.3h8.9c1.2,0,1.5-1.2.8-2.1l-4-5.4c-.6-.9-1.8-1-2.6,0l-3.9,5.4c-.7.9-.4,2.1.8,2.1ZM39.6,51.5c3,0,5.9-1.1,7.8-2.6,1.4-1,1.4-2.4.8-3.3-.6-.8-1.8-1.1-3.2-.2-1.5,1.1-3.3,1.8-5.4,1.8-5.1,0-9.2-4.1-9.2-9.2s-.9-2.1-2.1-2.1-2.1,1-2.1,2.1c0,7.4,6,13.4,13.4,13.4ZM55.4,35.8h-8.8c-1.2,0-1.5,1.2-.8,2.1l4,5.4c.6.9,1.8,1,2.5,0l3.9-5.4c.7-.9.4-2.1-.8-2.1ZM39.6,24.6c-3,0-5.9,1.1-7.8,2.6-1.4,1-1.4,2.4-.8,3.3.6.8,1.8,1.1,3.2.2,1.5-1.1,3.3-1.8,5.4-1.8,5.1,0,9.2,4.1,9.2,9.2s.9,2.1,2.1,2.1,2.1-1,2.1-2.1c0-7.4-6-13.4-13.4-13.4Z"/>
</svg>