<?xml version="1.0" encoding="UTF-8"?>
<svg id="Layer_1" xmlns="http://www.w3.org/2000/svg" version="1.1" viewBox="0 0 100 70">
  <!-- Generator: Adobe Illustrator 30.0.0, SVG Export Plug-In . SVG Version: 2.1.1 Build 123)  -->
  <defs>
    <style>
      .st0 {
        fill: #007aff;
        fill-opacity: .9;
      }
    </style>
  </defs>
  <path class="st0" d="M78.4,69.9c12.1,0,21.6-9.1,21.6-20.2s-5-15.7-12.6-19.1c0-17.8-12.9-30.6-29.1-30.6s-18.3,5.6-23.2,12.4c-9.9-2.6-20.4,4.8-20.7,15.9C5.3,30.1,0,38.4,0,48.1s10.3,21.9,24,21.9h54.5-.2,0ZM78.4,62.6H23.8c-9.8,0-16.8-6.9-16.8-14.7s4.7-14.1,13.1-14.1.8-.2.8-.8c0-12.4,8.7-15.6,16.6-13.1.6.1.8,0,1-.3,3.7-6.9,9.7-12.3,19.6-12.3s21.6,10.3,22.1,21.7c0,1.9,0,4.2-.2,6.2,0,.6,0,.8.7.9,7.2,1.5,11.9,6.5,11.9,13.6s-6.3,12.9-14.4,12.9h.2Z"/>
  <path class="st0" d="M33,41.2h10.3c1.4,0,1.7-1.4.9-2.4l-4.7-6.3c-.7-1-2.1-1.2-3,0l-4.5,6.3c-.8,1-.5,2.4.9,2.4h0ZM51.2,54.2c3.5,0,6.9-1.3,9.1-3,1.6-1.2,1.6-2.8.9-3.8-.7-.9-2.1-1.3-3.7-.2-1.7,1.3-3.8,2.1-6.3,2.1-5.9,0-10.7-4.8-10.7-10.7s-1-2.4-2.4-2.4-2.4,1.2-2.4,2.4c0,8.6,7,15.6,15.6,15.6h-.1ZM69.7,35.9h-10.2c-1.4,0-1.7,1.4-.9,2.4l4.7,6.3c.7,1,2.1,1.2,2.9,0l4.5-6.3c.8-1,.5-2.4-.9-2.4h0ZM51.2,22.9c-3.5,0-6.9,1.3-9.1,3-1.6,1.2-1.6,2.8-.9,3.8.7.9,2.1,1.3,3.7.2,1.7-1.3,3.8-2.1,6.3-2.1,5.9,0,10.7,4.8,10.7,10.7s1,2.4,2.4,2.4,2.4-1.2,2.4-2.4c0-8.6-7-15.6-15.6-15.6h.1Z"/>
</svg>