<?xml version="1.0" encoding="UTF-8"?>
<svg id="Layer_1" xmlns="http://www.w3.org/2000/svg" version="1.1" viewBox="0 0 55 70">
  <!-- Generator: Adobe Illustrator 30.0.0, SVG Export Plug-In . SVG Version: 2.1.1 Build 123)  -->
  <defs>
    <style>
      .st0 {
        fill: #007aff;
        fill-opacity: .9;
      }
    </style>
  </defs>
  <path class="st0" d="M55,33.2v23.8c0,8.4-4.7,13-13,13H13c-8.4,0-13-4.6-13-13v-23.8c0-8.4,4.7-13,13-13h5.6v5.7h-5.6c-4.7,0-7.4,2.7-7.4,7.4v23.8c0,4.7,2.7,7.3,7.4,7.3h29.1c4.7,0,7.4-2.6,7.4-7.3v-23.8c0-4.7-2.7-7.4-7.4-7.4h-5.7v-5.7h5.7c8.4,0,13,4.7,13,13Z"/>
  <path class="st0" d="M30.1,7.6l.2,4.7v30.6c0,1.5-1.3,2.7-2.8,2.7s-2.8-1.2-2.8-2.7V12.3l.2-4.7,2.5-2.7,2.6,2.8h0Z"/>
  <path class="st0" d="M17.1,14.9c.7,0,1.5-.3,1.9-.9l4.4-4.7,4.1-4.4,4.2,4.4,4.3,4.7c.5.6,1.2.9,1.9.9,1.5,0,2.6-1.1,2.6-2.5s-.3-1.3-.8-1.8L29.5.9c-.7-.7-1.3-.9-2-.9s-1.3.2-2,.9l-10.1,9.6c-.5.5-.8,1.1-.8,1.8,0,1.4,1.1,2.5,2.5,2.5h0Z"/>
</svg>