<?xml version="1.0" encoding="UTF-8"?>
<svg id="Layer_1" xmlns="http://www.w3.org/2000/svg" version="1.1" viewBox="0 0 33.5 70">
  <!-- Generator: Adobe Illustrator 30.0.0, SVG Export Plug-In . SVG Version: 2.1.1 Build 123)  -->
  <defs>
    <style>
      .st0 {
        fill: #007aff;
        fill-opacity: .9;
      }

      .st1 {
        fill-opacity: 0;
      }
    </style>
  </defs>
  <rect class="st1" x="-33" width="33.3" height="70"/>
  <path class="st0" d="M0,3l.6,11c.1,2.1.9,3.2,2.3,4.2l6.8,5c.8.6,1.3,1,1.3,2.5v41.2c0,1.7,1.3,3.1,3.1,3.1s3.1-1.4,3.1-3.1v-22c0-.6.5-1.1,1.1-1.1s1.1.5,1.1,1.1v22c0,1.7,1.3,3.1,3.1,3.1s3.1-1.4,3.1-3.1V30.4c0-.6.5-1,1.1-1s1.1.4,1.1,1v12.2c0,1.5,1.2,2.8,2.8,2.8s2.8-1.3,2.8-2.8v-13.6c0-7-5.1-11.6-12.8-11.6h-6.6c-1.9,0-3-.4-4.5-1.4l-3.2-2.3-.6-10.8C5.6,1.2,4.2,0,2.6,0,1.1,0,0,1.4,0,3ZM18.4,13.9c3.8,0,6.9-3.1,6.9-6.9S22.2.1,18.4.1s-6.9,3.1-6.9,6.9,3.1,6.9,6.9,6.9Z"/>
</svg>